<svg width="22" height="19" viewBox="0 0 22 19" fill="none" xmlns="http://www.w3.org/2000/svg">
<path d="M10.5351 12.6101C8.55508 12.6101 6.95508 11.0101 6.95508 9.03007C6.95508 7.05007 8.55508 5.45007 10.5351 5.45007C12.5151 5.45007 14.1151 7.05007 14.1151 9.03007C14.1151 11.0101 12.5151 12.6101 10.5351 12.6101Z" stroke="white" stroke-width="1.5" stroke-linecap="round" stroke-linejoin="round"/>
<path d="M19.645 11.62C20.545 10.21 20.545 7.84 19.645 6.43C17.355 2.83 14.065 0.75 10.535 0.75C7.005 0.75 3.715 2.83 1.425 6.43C0.525 7.84 0.525 10.21 1.425 11.62C3.715 15.22 7.005 17.3 10.535 17.3C14.065 17.3 17.355 15.22 19.645 11.62Z" stroke="white" stroke-width="1.5" stroke-linecap="round" stroke-linejoin="round"/>
</svg>
