<svg width="27" height="27" viewBox="0 0 27 27" fill="none" xmlns="http://www.w3.org/2000/svg">
<path d="M15.6615 2.80522L17.8613 7.24109C18.1612 7.85859 18.9611 8.45088 19.6361 8.56429L23.6231 9.23219C26.1728 9.66066 26.7728 11.5257 24.9355 13.3656L21.8358 16.4909C21.3109 17.0202 21.0234 18.0409 21.1859 18.7718L22.0733 22.6406C22.7732 25.7029 21.1609 26.8875 18.4737 25.287L14.7366 23.0565C14.0617 22.6532 12.9493 22.6532 12.2619 23.0565L8.52479 25.287C5.85008 26.8875 4.22526 25.6903 4.92519 22.6406L5.81259 18.7718C5.97507 18.0409 5.6876 17.0202 5.16266 16.4909L2.063 13.3656C0.238203 11.5257 0.825639 9.66066 3.37536 9.23219L7.36242 8.56429C8.02484 8.45088 8.82475 7.85859 9.12472 7.24109L11.3245 2.80522C12.5243 0.398259 14.4741 0.398259 15.6615 2.80522Z" stroke="#68AC8A" stroke-width="2" stroke-linecap="round" stroke-linejoin="round"/>
</svg>
