<svg width="20" height="20" viewBox="0 0 20 20" fill="none" xmlns="http://www.w3.org/2000/svg">
<path d="M12.75 15.375C12.6764 17.2269 11.1331 18.7994 9.06564 18.7488C8.58465 18.737 7.99013 18.5694 6.80112 18.234C3.93961 17.4268 1.45555 16.0703 0.859555 13.0315C0.75 12.473 0.75 11.8444 0.75 10.5873L0.75 8.91274C0.75 7.65561 0.75 7.02705 0.859556 6.46846C1.45555 3.42965 3.93961 2.07316 6.80112 1.26603C7.99014 0.930645 8.58465 0.762954 9.06564 0.751187C11.1331 0.70061 12.6764 2.27307 12.75 4.12501" stroke="#FF6260" stroke-width="1.5" stroke-linecap="round"/>
<path d="M18.75 9.75H7.75M18.75 9.75C18.75 9.04977 16.7557 7.74153 16.25 7.25M18.75 9.75C18.75 10.4502 16.7557 11.7585 16.25 12.25" stroke="#FF6260" stroke-width="1.5" stroke-linecap="round" stroke-linejoin="round"/>
</svg>
