<svg width="20" height="27" viewBox="0 0 20 27" fill="none" xmlns="http://www.w3.org/2000/svg">
<path d="M9.1841 12.1938C6.18057 12.0929 3.79541 9.632 3.79541 6.60323C3.79541 3.51136 6.29415 1 9.39864 1C12.4905 1 15.0019 3.51136 15.0019 6.60323C14.9893 9.632 12.6041 12.0929 9.60056 12.1938C9.47436 12.1812 9.32292 12.1812 9.1841 12.1938Z" fill="#68AC8A" fill-opacity="0.2" stroke="#68AC8A" stroke-width="2" stroke-linecap="round" stroke-linejoin="round"/>
<path d="M3.29051 24.2586C6.76098 26.5807 12.4526 26.5807 15.923 24.2586C18.977 22.2142 18.977 18.8825 15.923 16.8507C12.4652 14.5413 6.7736 14.5413 3.29051 16.8507C0.236497 18.8952 0.236497 22.2268 3.29051 24.2586Z" fill="#68AC8A" fill-opacity="0.2" stroke="#68AC8A" stroke-width="2" stroke-linecap="round" stroke-linejoin="round"/>
</svg>
